<svg xmlns="http://www.w3.org/2000/svg" viewBox="0 0 48 48"><linearGradient id="a" x1="925.416" x2="937.677" y1="-207.249" y2="-220.57" gradientTransform="matrix(3.0757 0 0 -3.0757 -2840.537 -633.24)" gradientUnits="userSpaceOnUse"><stop offset="0" stop-color="#6EC5A6"/><stop offset="1" stop-color="#3FC0EF"/></linearGradient><path fill="url(#a)" d="M10.144 0h27.712C43.458 0 48 4.542 48 10.144v27.712C48 43.458 43.458 48 37.856 48H10.144C4.542 48 0 43.458 0 37.856V10.144C0 4.542 4.542 0 10.144 0z"/><path fill="#fff" d="M19.987 21.444a2.09 2.09 0 0 1-2.087-2.087v-.882h1v.882a1.088 1.088 0 0 0 2.174 0v-.882h1v.882a2.09 2.09 0 0 1-2.087 2.087z"/><path fill="#fff" d="M21.654 19.067h-3.341a.5.5 0 0 1-.482-.368l-.286-1.046a1.126 1.126 0 0 1 .654-1.295 1.243 1.243 0 0 1 1.394-.843l1.81.302c.337.056.632.241.829.521s.271.62.21.956l-.297 1.379a.505.505 0 0 1-.491.394zm-2.96-1h2.556l.209-.968a.255.255 0 0 0-.048-.186.267.267 0 0 0-.174-.11l-1.81-.302a.238.238 0 0 0-.205.057.247.247 0 0 0-.089.192c0 .276-.224.52-.5.52a.115.115 0 0 0-.094.045.116.116 0 0 0-.024.101l.179.651zM16.495 25.5a.5.5 0 0 1-.5-.5v-1.45c0-.734.461-1.4 1.148-1.658l1.392-.522v-.75a.5.5 0 0 1 .801-.399c.387.292.915.292 1.302-.001a.5.5 0 0 1 .801.399v1.099a.5.5 0 0 1-1 0v-.324a2.048 2.048 0 0 1-.905 0v.323a.5.5 0 0 1-.324.468l-1.716.644a.774.774 0 0 0-.5.721V25a.499.499 0 0 1-.499.5z"/><path fill="#fff" d="M23.495 25.5a.5.5 0 0 1-.5-.5v-1.45a.774.774 0 0 0-.5-.721l-1.716-.644a.5.5 0 0 1 .352-.936l1.716.644a1.779 1.779 0 0 1 1.148 1.658V25a.5.5 0 0 1-.5.5z"/><path fill="#fff" d="M19.988 23.487a2.727 2.727 0 0 1-2.23-1.16.499.499 0 1 1 .818-.574c.645.919 2.176.921 2.821.001a.501.501 0 0 1 .819.575 2.726 2.726 0 0 1-2.228 1.158z"/><path fill="#fff" d="M35.5 39.5h-23a.5.5 0 0 1-.5-.5V12a.5.5 0 0 1 .5-.5h7a.5.5 0 0 1 0 1H13v26h22v-26h-6.5a.5.5 0 0 1 0-1h7a.5.5 0 0 1 .5.5v27a.5.5 0 0 1-.5.5z"/><path fill="#fff" d="M33.5 37.5h-19a.5.5 0 0 1-.5-.5V14a.5.5 0 0 1 .5-.5h3a.5.5 0 0 1 0 1H15v22h18v-22h-2.5a.5.5 0 0 1 0-1h3a.5.5 0 0 1 .5.5v23a.5.5 0 0 1-.5.5z"/><path fill="#fff" d="M28.5 14.5h-9a.5.5 0 0 1-.5-.5v-3a.5.5 0 0 1 .5-.5H22c0-1.103.897-2 2-2s2 .897 2 2h2.5a.5.5 0 0 1 .5.5v3a.5.5 0 0 1-.5.5zm-8.5-1h8v-2h-2.592a.501.501 0 0 1-.471-.667c.042-.12.063-.229.063-.333 0-.551-.449-1-1-1s-1 .449-1 1c0 .104.021.213.063.333a.501.501 0 0 1-.471.667H20v2zm11.5 6h-6a.5.5 0 0 1-.5-.5v-2a.5.5 0 0 1 .5-.5h6a.5.5 0 0 1 .5.5v2a.5.5 0 0 1-.5.5zm-5.5-1h5v-1h-5v1zm5.5 11h-15a.5.5 0 0 1-.5-.5v-2a.5.5 0 0 1 .5-.5h15a.5.5 0 0 1 .5.5v2a.5.5 0 0 1-.5.5zm-14.5-1h14v-1H17v1zm14.5-7h-3a.5.5 0 0 1 0-1h3a.5.5 0 0 1 0 1zm-5 0h-1a.5.5 0 0 1 0-1h1a.5.5 0 0 1 0 1zm2 10h-10a.5.5 0 0 1 0-1h10a.5.5 0 0 1 0 1zm-12 0c-.07 0-.13-.01-.19-.04a.372.372 0 0 1-.16-.11.355.355 0 0 1-.11-.16A.408.408 0 0 1 16 31c0-.13.05-.26.15-.351a.503.503 0 0 1 .7 0c.1.091.15.221.15.351 0 .069-.01.13-.04.189a.35.35 0 0 1-.11.16c-.04.05-.1.09-.16.11a.395.395 0 0 1-.19.041zm12 2h-10a.5.5 0 0 1 0-1h10a.5.5 0 0 1 0 1zm-12 0a.47.47 0 0 1-.35-.15A.454.454 0 0 1 16 33c0-.13.05-.26.15-.351a.503.503 0 0 1 .7 0c.1.091.15.221.15.351 0 .069-.01.13-.04.189a.35.35 0 0 1-.11.16c-.04.05-.1.09-.16.11a.395.395 0 0 1-.19.041zm12 2h-10a.5.5 0 0 1 0-1h10a.5.5 0 0 1 0 1zm3-4h-1a.5.5 0 0 1 0-1h1a.5.5 0 0 1 0 1zm0 2h-1a.5.5 0 0 1 0-1h1a.5.5 0 0 1 0 1zm0 2h-1a.5.5 0 0 1 0-1h1a.5.5 0 0 1 0 1zm-15 0a.47.47 0 0 1-.35-.15c-.1-.09-.15-.22-.15-.35s.05-.26.15-.351c.04-.05.1-.09.16-.109.18-.08.4-.04.54.109.1.091.15.221.15.351s-.05.26-.15.35a.47.47 0 0 1-.35.15zm15-12h-6a.5.5 0 0 1 0-1h6a.5.5 0 0 1 0 1zm-2 2h-4a.5.5 0 0 1 0-1h4a.5.5 0 0 1 0 1z"/></svg>