<svg xmlns="http://www.w3.org/2000/svg" viewBox="0 0 64 64"><g id="CLOUD_SERVER-2" data-name="CLOUD SERVER"><path d="M31,17c-7.89.14-7.88,11.86,0,12C38.89,28.86,38.88,17.14,31,17Zm4.53,4.8c-.46.3-4.65,5.05-5.17,4.75h0c-.31.13-3.38-1.92-3.69-2.06a1,1,0,0,1,1-1.71l2.51,1.51,3.9-3.91C35,19.45,36.46,20.89,35.53,21.8Z"/><path d="M57.05,37a2.93,2.93,0,0,0-2.76,2h-4.1V35h6.74a1,1,0,0,0,.42-.1c6.18-6.57.89-18.54-8-18.8a14.35,14.35,0,0,0-16.15-4.41C28.66.23,12,3.12,11.32,15.4A11.67,11.67,0,0,0,6.25,34.66,1,1,0,0,0,7,35h6.84v4H9.71a2.94,2.94,0,1,0,0,2c7.29-.14,6,1.36,6.1-6h5.86V48h-7a2.95,2.95,0,1,0,0,2h8a1,1,0,0,0,1-1V35h7.82V54h-7a2.94,2.94,0,1,0,0,2H40.78a2.94,2.94,0,1,0,0-2H33.49V35h6.84V49a1,1,0,0,0,1,1h8a2.95,2.95,0,1,0,0-2h-7V35h5.86c.09,7.39-1.17,5.86,6.1,6A2.94,2.94,0,0,0,60,40,3,3,0,0,0,57.05,37ZM31,31c-10.55-.28-10.55-15.72,0-16C41.55,15.28,41.55,30.72,31,31Z"/></g></svg>